<?xml version="1.0" encoding="iso-8859-1"?>
<!-- Generator: Adobe Illustrator 19.0.0, SVG Export Plug-In . SVG Version: 6.00 Build 0)  -->
<svg version="1.1" id="Layer_1" xmlns="http://www.w3.org/2000/svg" xmlns:xlink="http://www.w3.org/1999/xlink" x="0px" y="0px"
	 viewBox="5 7 16 16" style="enable-background:new 0 0 16 16;" xml:space="preserve">

	<style type="text/css">
	.st0{fill:#333333;}
</style>
<path class="st0" d="M12.5,2c-3.9,0-7,3.1-7,7c0,5.2,7,13,7,13s7-7.8,7-13C19.5,5.1,16.3,2,12.5,2z M12.5,4c1.1,0,2,0.9,2,2
	s-0.9,2-2,2s-2-0.9-2-2S11.4,4,12.5,4z M12.5,14c-1.7,0-3.1-0.9-4-2.1c0-1.3,2.7-2.1,4-2.1s4,0.7,4,2.1C15.6,13.2,14.1,14,12.5,14z"
	/>

</svg>
