<?xml version="1.0" encoding="utf-8"?>
<!-- Generator: Adobe Illustrator 22.1.0, SVG Export Plug-In . SVG Version: 6.00 Build 0)  -->
<svg version="1.1" id="Layer_1" xmlns="http://www.w3.org/2000/svg" xmlns:xlink="http://www.w3.org/1999/xlink" x="0px" y="0px"
	 viewBox="0 0 22 14" style="enable-background:new 0 0 22 14;" xml:space="preserve">
<style type="text/css">
	.st0{fill:#333333;}
</style>
<path class="st0" d="M15,6c1.7,0,3-1.3,3-3s-1.3-3-3-3s-3,1.3-3,3S13.3,6,15,6z M7,6c1.7,0,3-1.3,3-3S8.7,0,7,0S4,1.3,4,3S5.3,6,7,6
	z M7,8c-2.3,0-7,1.2-7,3.5V14h14v-2.5C14,9.2,9.3,8,7,8z M15,8c-0.3,0-0.6,0-1,0.1c1.2,0.8,2,2,2,3.4V14h6v-2.5C22,9.2,17.3,8,15,8z
	"/>
</svg>
