<?xml version="1.0" encoding="utf-8"?>
<!-- Generator: Adobe Illustrator 22.1.0, SVG Export Plug-In . SVG Version: 6.00 Build 0)  -->
<svg version="1.1" id="Layer_1" xmlns="http://www.w3.org/2000/svg" xmlns:xlink="http://www.w3.org/1999/xlink" x="0px" y="0px"
	 viewBox="0 0 17 20" style="enable-background:new 0 0 17 20;" xml:space="preserve">
<style type="text/css">
	.st0{fill:#4B73B3;}
</style>
<path class="st0" d="M8.5,0C3.8,0,0,3.8,0,8.5S3.8,17,8.5,17H9v3c4.9-2.3,8-7,8-11.5C17,3.8,13.2,0,8.5,0z M9.5,14.5h-2v-2h2V14.5z
	 M9.5,11h-2c0-3.2,3-3,3-5c0-1.1-0.9-2-2-2s-2,0.9-2,2h-2c0-2.2,1.8-4,4-4s4,1.8,4,4C12.5,8.5,9.5,8.8,9.5,11z"/>
</svg>
